<?xml version="1.0" encoding="UTF-8" standalone="no"?>
<!DOCTYPE svg PUBLIC "-//W3C//DTD SVG 1.1//EN" "http://www.w3.org/Graphics/SVG/1.1/DTD/svg11.dtd">
<svg width="100%" height="100%" viewBox="0 0 1000 300" version="1.1" xmlns="http://www.w3.org/2000/svg" xmlns:xlink="http://www.w3.org/1999/xlink" xml:space="preserve" xmlns:serif="http://www.serif.com/" style="fill-rule:evenodd;clip-rule:evenodd;stroke-linejoin:round;stroke-miterlimit:2;">
    <g transform="matrix(1,0,0,1,-190.034,-499.45)">
        <g id="Layer1">
            <g>
                <path d="M205.906,615.973C210.77,614.565 217.042,613.253 224.722,612.037C232.402,610.821 240.466,610.213 248.914,610.213C257.49,610.213 264.626,611.333 270.322,613.573C276.018,615.813 280.53,618.981 283.858,623.077C287.186,627.173 289.554,632.037 290.962,637.669C292.37,643.301 293.074,649.573 293.074,656.485L293.074,713.509L264.466,713.509L264.466,659.941C264.466,650.725 263.25,644.197 260.818,640.357C258.386,636.517 253.842,634.597 247.186,634.597C245.138,634.597 242.962,634.693 240.658,634.885C238.354,635.077 236.306,635.301 234.514,635.557L234.514,713.509L205.906,713.509L205.906,615.973Z" style="fill:rgb(123,123,123);fill-rule:nonzero;"/>
                <path d="M357.586,693.541C360.402,693.541 363.09,693.477 365.65,693.349C368.21,693.221 370.258,693.029 371.794,692.773L371.794,671.077C370.642,670.821 368.914,670.565 366.61,670.309C364.306,670.053 362.194,669.925 360.274,669.925C357.586,669.925 355.058,670.085 352.69,670.405C350.322,670.725 348.242,671.333 346.45,672.229C344.658,673.125 343.25,674.341 342.226,675.877C341.202,677.413 340.69,679.333 340.69,681.637C340.69,686.117 342.194,689.221 345.202,690.949C348.21,692.677 352.338,693.541 357.586,693.541ZM355.282,609.829C363.73,609.829 370.77,610.789 376.402,612.709C382.034,614.629 386.546,617.381 389.938,620.965C393.33,624.549 395.73,628.901 397.138,634.021C398.546,639.141 399.25,644.837 399.25,651.109L399.25,710.629C395.154,711.525 389.458,712.581 382.162,713.797C374.866,715.013 366.034,715.621 355.666,715.621C349.138,715.621 343.218,715.045 337.906,713.893C332.594,712.741 328.018,710.853 324.178,708.229C320.338,705.605 317.394,702.181 315.346,697.957C313.298,693.733 312.274,688.549 312.274,682.405C312.274,676.517 313.458,671.525 315.826,667.429C318.194,663.333 321.362,660.069 325.33,657.637C329.298,655.205 333.842,653.445 338.962,652.357C344.082,651.269 349.394,650.725 354.898,650.725C358.61,650.725 361.906,650.885 364.786,651.205C367.666,651.525 370.002,651.941 371.794,652.453L371.794,649.765C371.794,644.901 370.322,640.997 367.378,638.053C364.434,635.109 359.314,633.637 352.018,633.637C347.154,633.637 342.354,633.989 337.618,634.693C332.882,635.397 328.786,636.389 325.33,637.669L321.682,614.629C323.346,614.117 325.426,613.573 327.922,612.997C330.418,612.421 333.138,611.909 336.082,611.461C339.026,611.013 342.13,610.629 345.394,610.309C348.658,609.989 351.954,609.829 355.282,609.829Z" style="fill:rgb(123,123,123);fill-rule:nonzero;"/>
                <path d="M424.21,587.365L452.818,582.757L452.818,612.517L487.186,612.517L487.186,636.325L452.818,636.325L452.818,671.845C452.818,677.861 453.874,682.661 455.986,686.245C458.098,689.829 462.354,691.621 468.754,691.621C471.826,691.621 474.994,691.333 478.258,690.757C481.522,690.181 484.498,689.381 487.186,688.357L491.218,710.629C487.762,712.037 483.922,713.253 479.698,714.277C475.474,715.301 470.29,715.813 464.146,715.813C456.338,715.813 449.874,714.757 444.754,712.645C439.634,710.533 435.538,707.589 432.466,703.813C429.394,700.037 427.25,695.461 426.034,690.085C424.818,684.709 424.21,678.757 424.21,672.229L424.21,587.365Z" style="fill:rgb(123,123,123);fill-rule:nonzero;"/>
                <path d="M501.778,663.013C501.778,655.717 502.962,648.837 505.33,642.373C507.698,635.909 511.122,630.277 515.602,625.477C520.082,620.677 525.522,616.869 531.922,614.053C538.322,611.237 545.618,609.829 553.81,609.829C559.186,609.829 564.114,610.309 568.594,611.269C573.074,612.229 577.426,613.605 581.65,615.397L575.698,638.245C573.01,637.221 570.066,636.325 566.866,635.557C563.666,634.789 560.082,634.405 556.114,634.405C547.666,634.405 541.362,637.029 537.202,642.277C533.042,647.525 530.962,654.437 530.962,663.013C530.962,672.101 532.914,679.141 536.818,684.133C540.722,689.125 547.538,691.621 557.266,691.621C560.722,691.621 564.434,691.301 568.402,690.661C572.37,690.021 576.018,688.997 579.346,687.589L583.378,711.013C580.05,712.421 575.89,713.637 570.898,714.661C565.906,715.685 560.402,716.197 554.386,716.197C545.17,716.197 537.234,714.821 530.578,712.069C523.922,709.317 518.45,705.573 514.162,700.837C509.874,696.101 506.738,690.501 504.754,684.037C502.77,677.573 501.778,670.565 501.778,663.013Z" style="fill:rgb(123,123,123);fill-rule:nonzero;"/>
                <path d="M692.242,662.821C692.242,670.757 691.09,678.021 688.786,684.613C686.482,691.205 683.154,696.837 678.802,701.509C674.45,706.181 669.234,709.797 663.154,712.357C657.074,714.917 650.258,716.197 642.706,716.197C635.282,716.197 628.53,714.917 622.45,712.357C616.37,709.797 611.154,706.181 606.802,701.509C602.45,696.837 599.058,691.205 596.626,684.613C594.194,678.021 592.978,670.757 592.978,662.821C592.978,654.885 594.226,647.653 596.722,641.125C599.218,634.597 602.674,629.029 607.09,624.421C611.506,619.813 616.754,616.229 622.834,613.669C628.914,611.109 635.538,609.829 642.706,609.829C650.002,609.829 656.69,611.109 662.77,613.669C668.85,616.229 674.066,619.813 678.418,624.421C682.77,629.029 686.162,634.597 688.594,641.125C691.026,647.653 692.242,654.885 692.242,662.821ZM663.058,662.821C663.058,653.989 661.298,647.045 657.778,641.989C654.258,636.933 649.234,634.405 642.706,634.405C636.178,634.405 631.122,636.933 627.538,641.989C623.954,647.045 622.162,653.989 622.162,662.821C622.162,671.653 623.954,678.661 627.538,683.845C631.122,689.029 636.178,691.621 642.706,691.621C649.234,691.621 654.258,689.029 657.778,683.845C661.298,678.661 663.058,671.653 663.058,662.821Z" style="fill:rgb(123,123,123);fill-rule:nonzero;"/>
                <path d="M714.322,615.973C719.186,614.565 725.458,613.253 733.138,612.037C740.818,610.821 748.882,610.213 757.33,610.213C765.906,610.213 773.042,611.333 778.738,613.573C784.434,615.813 788.946,618.981 792.274,623.077C795.602,627.173 797.97,632.037 799.378,637.669C800.786,643.301 801.49,649.573 801.49,656.485L801.49,713.509L772.882,713.509L772.882,659.941C772.882,650.725 771.666,644.197 769.234,640.357C766.802,636.517 762.258,634.597 755.602,634.597C753.554,634.597 751.378,634.693 749.074,634.885C746.77,635.077 744.722,635.301 742.93,635.557L742.93,713.509L714.322,713.509L714.322,615.973Z" style="fill:rgb(123,123,123);fill-rule:nonzero;"/>
                <path d="M856.402,692.965C861.65,692.965 865.362,692.453 867.538,691.429C869.714,690.405 870.802,688.421 870.802,685.477C870.802,683.173 869.394,681.157 866.578,679.429C863.762,677.701 859.474,675.749 853.714,673.573C849.234,671.909 845.17,670.181 841.522,668.389C837.874,666.597 834.77,664.453 832.21,661.957C829.65,659.461 827.666,656.485 826.258,653.029C824.85,649.573 824.146,645.413 824.146,640.549C824.146,631.077 827.666,623.589 834.706,618.085C841.746,612.581 851.41,609.829 863.698,609.829C869.842,609.829 875.73,610.373 881.362,611.461C886.994,612.549 891.474,613.733 894.802,615.013L889.81,637.285C886.482,636.133 882.866,635.109 878.962,634.213C875.058,633.317 870.674,632.869 865.81,632.869C856.85,632.869 852.37,635.365 852.37,640.357C852.37,641.509 852.562,642.533 852.946,643.429C853.33,644.325 854.098,645.189 855.25,646.021C856.402,646.853 857.97,647.749 859.954,648.709C861.938,649.669 864.466,650.725 867.538,651.877C873.81,654.181 878.994,656.453 883.09,658.693C887.186,660.933 890.418,663.365 892.786,665.989C895.154,668.613 896.818,671.525 897.778,674.725C898.738,677.925 899.218,681.637 899.218,685.861C899.218,695.845 895.474,703.397 887.986,708.517C880.498,713.637 869.906,716.197 856.21,716.197C847.25,716.197 839.794,715.429 833.842,713.893C827.89,712.357 823.762,711.077 821.458,710.053L826.258,686.821C831.122,688.741 836.114,690.245 841.234,691.333C846.354,692.421 851.41,692.965 856.402,692.965Z" style="fill:rgb(123,123,123);fill-rule:nonzero;"/>
                <path d="M919.57,587.365L948.178,582.757L948.178,612.517L982.546,612.517L982.546,636.325L948.178,636.325L948.178,671.845C948.178,677.861 949.234,682.661 951.346,686.245C953.458,689.829 957.714,691.621 964.114,691.621C967.186,691.621 970.354,691.333 973.618,690.757C976.882,690.181 979.858,689.381 982.546,688.357L986.578,710.629C983.122,712.037 979.282,713.253 975.058,714.277C970.834,715.301 965.65,715.813 959.506,715.813C951.698,715.813 945.234,714.757 940.114,712.645C934.994,710.533 930.898,707.589 927.826,703.813C924.754,700.037 922.61,695.461 921.394,690.085C920.178,684.709 919.57,678.757 919.57,672.229L919.57,587.365Z" style="fill:rgb(123,123,123);fill-rule:nonzero;"/>
                <path d="M1040.53,693.541C1043.35,693.541 1046.03,693.477 1048.59,693.349C1051.15,693.221 1053.2,693.029 1054.74,692.773L1054.74,671.077C1053.59,670.821 1051.86,670.565 1049.55,670.309C1047.25,670.053 1045.14,669.925 1043.22,669.925C1040.53,669.925 1038,670.085 1035.63,670.405C1033.27,670.725 1031.19,671.333 1029.39,672.229C1027.6,673.125 1026.19,674.341 1025.17,675.877C1024.15,677.413 1023.63,679.333 1023.63,681.637C1023.63,686.117 1025.14,689.221 1028.15,690.949C1031.15,692.677 1035.28,693.541 1040.53,693.541ZM1038.23,609.829C1046.67,609.829 1053.71,610.789 1059.35,612.709C1064.98,614.629 1069.49,617.381 1072.88,620.965C1076.27,624.549 1078.67,628.901 1080.08,634.021C1081.49,639.141 1082.19,644.837 1082.19,651.109L1082.19,710.629C1078.1,711.525 1072.4,712.581 1065.11,713.797C1057.81,715.013 1048.98,715.621 1038.61,715.621C1032.08,715.621 1026.16,715.045 1020.85,713.893C1015.54,712.741 1010.96,710.853 1007.12,708.229C1003.28,705.605 1000.34,702.181 998.29,697.957C996.242,693.733 995.218,688.549 995.218,682.405C995.218,676.517 996.402,671.525 998.77,667.429C1001.14,663.333 1004.31,660.069 1008.27,657.637C1012.24,655.205 1016.79,653.445 1021.91,652.357C1027.03,651.269 1032.34,650.725 1037.84,650.725C1041.55,650.725 1044.85,650.885 1047.73,651.205C1050.61,651.525 1052.95,651.941 1054.74,652.453L1054.74,649.765C1054.74,644.901 1053.27,640.997 1050.32,638.053C1047.38,635.109 1042.26,633.637 1034.96,633.637C1030.1,633.637 1025.3,633.989 1020.56,634.693C1015.83,635.397 1011.73,636.389 1008.27,637.669L1004.63,614.629C1006.29,614.117 1008.37,613.573 1010.87,612.997C1013.36,612.421 1016.08,611.909 1019.03,611.461C1021.97,611.013 1025.07,610.629 1028.34,610.309C1031.6,609.989 1034.9,609.829 1038.23,609.829Z" style="fill:rgb(123,123,123);fill-rule:nonzero;"/>
                <path d="M1107.15,587.365L1135.76,582.757L1135.76,612.517L1170.13,612.517L1170.13,636.325L1135.76,636.325L1135.76,671.845C1135.76,677.861 1136.82,682.661 1138.93,686.245C1141.04,689.829 1145.3,691.621 1151.7,691.621C1154.77,691.621 1157.94,691.333 1161.2,690.757C1164.47,690.181 1167.44,689.381 1170.13,688.357L1174.16,710.629C1170.71,712.037 1166.87,713.253 1162.64,714.277C1158.42,715.301 1153.23,715.813 1147.09,715.813C1139.28,715.813 1132.82,714.757 1127.7,712.645C1122.58,710.533 1118.48,707.589 1115.41,703.813C1112.34,700.037 1110.19,695.461 1108.98,690.085C1107.76,684.709 1107.15,678.757 1107.15,672.229L1107.15,587.365Z" style="fill:rgb(123,123,123);fill-rule:nonzero;"/>
            </g>
        </g>
    </g>
</svg>
